<?xml version="1.0" encoding="UTF-8"?>
<svg version="1.1" xmlns="http://www.w3.org/2000/svg" width="256" height="256">
<path d="M0 0 C0.85546803 -0.00297112 1.71093606 -0.00594224 2.59232736 -0.0090034 C5.45790346 -0.01767264 8.3234377 -0.01919715 11.18902588 -0.02069092 C13.24410084 -0.02532034 15.29917494 -0.03034516 17.35424805 -0.03573608 C22.93702252 -0.04884989 28.51978497 -0.05530302 34.10257244 -0.05974674 C37.59139607 -0.06267902 41.08021642 -0.06678412 44.56903839 -0.07125092 C55.48749646 -0.08492297 66.40594703 -0.09459114 77.32441306 -0.09845281 C89.92317315 -0.10293341 102.52182473 -0.1204827 115.12055182 -0.1494534 C124.86254083 -0.1710766 134.60449933 -0.18115743 144.34651208 -0.18249393 C150.16338031 -0.18354146 155.9801465 -0.18943852 161.79698944 -0.20731354 C167.27007119 -0.22380523 172.74297432 -0.2259443 178.21607208 -0.21717453 C180.22154723 -0.21640476 182.22703202 -0.22073896 184.23248291 -0.23063278 C186.97714009 -0.24337623 189.72116689 -0.23746247 192.46582031 -0.22705078 C193.64702977 -0.23913539 193.64702977 -0.23913539 194.85210204 -0.25146413 C203.96531656 -0.17099954 211.92441649 2.73525125 218.48687744 9.14044189 C222.30759811 14.14624962 224.59955463 18.57620846 224.64077759 24.95161438 C224.64937805 25.94257111 224.65797852 26.93352783 224.6668396 27.95451355 C224.67322952 29.58387596 224.67322952 29.58387596 224.67974854 31.24615479 C224.68792603 32.39120483 224.69610352 33.53625488 224.70452881 34.71600342 C224.72939111 38.51502967 224.74590315 42.31401846 224.76031494 46.11309814 C224.76563862 47.41074034 224.7709623 48.70838253 224.7764473 50.04534721 C224.79768072 55.50213683 224.81680894 60.95891429 224.82806969 66.41573429 C224.84427946 74.21807111 224.87738326 82.01990762 224.93447053 89.82205588 C224.97329365 95.31691922 224.99271723 100.81164948 224.99799025 106.30664629 C225.00162859 109.58352958 225.01602028 112.85975948 225.04609299 116.13652229 C225.07779922 119.80105376 225.07777181 123.464334 225.07037354 127.12896729 C225.08677887 128.20103928 225.1031842 129.27311127 225.12008667 130.37767029 C225.05304184 138.52361703 223.12576322 145.20816869 217.49696922 151.2907877 C210.95369314 157.49411606 204.78229831 159.61697272 195.95635986 159.38238525 C195.13259354 159.37330139 194.30882721 159.36421753 193.46009827 159.3548584 C191.68184355 159.33460509 189.90365085 159.30813159 188.1255703 159.27604485 C185.30343093 159.22964584 182.48229199 159.20982327 179.6598053 159.19844055 C171.63905323 159.16551223 163.61951484 159.11833741 155.59991455 158.97271729 C150.68289022 158.88536862 145.76848354 158.85710773 140.8507328 158.86654854 C138.98596093 158.8591031 137.12113671 158.83001651 135.25707054 158.77818108 C124.47737133 158.15483697 124.47737133 158.15483697 115.19552612 162.71615601 C112.56584554 165.60966152 110.52812531 168.80892206 108.48687744 172.14044189 C107.17134331 173.88318831 105.84132877 175.61526658 104.48687744 177.32794189 C103.95062744 178.04337158 103.41437744 178.75880127 102.86187744 179.49591064 C100.88854911 181.85605617 99.74588992 182.11166273 96.67437744 182.45294189 C92.11281228 182.00572962 89.89467696 179.83463596 86.99395752 176.34381104 C85.39558535 174.25704038 83.84031653 172.14494734 82.29937744 170.01544189 C81.24471407 168.57436619 80.18878046 167.13421902 79.13140869 165.69512939 C78.67097168 165.06074951 78.21053467 164.42636963 77.73614502 163.77276611 C76.44262023 162.00833594 76.44262023 162.00833594 74.48687744 160.14044189 C71.7987745 159.94902253 69.21274004 159.88134019 66.52398682 159.90093994 C65.70095062 159.89892578 64.87791443 159.89691162 64.02993774 159.89483643 C62.23803545 159.89128483 60.44612063 159.89206549 58.65422058 159.89661217 C55.81154959 159.90219813 52.96928783 159.89305607 50.12664795 159.87940979 C42.04260574 159.84226776 33.95869784 159.82369287 25.87457275 159.83502197 C20.93129489 159.84089969 15.98858708 159.82247571 11.04542542 159.78913307 C9.16693211 159.78121345 7.2883761 159.78240908 5.40989685 159.79315758 C-15.36840564 159.90684074 -15.36840564 159.90684074 -23.63336182 152.15074158 C-30.89451225 144.61773088 -31.95952294 137.6615922 -31.91717529 127.54888916 C-31.92403854 126.40004242 -31.93090179 125.25119568 -31.93797302 124.0675354 C-31.95623233 120.28051293 -31.9524046 116.49390507 -31.94671631 112.70684814 C-31.95127843 110.06800705 -31.95658409 107.42916715 -31.96260071 104.79032898 C-31.97261599 99.26335708 -31.96934516 93.73650229 -31.95916748 88.20953369 C-31.94768869 81.83544226 -31.96176308 75.4617717 -31.98856395 69.08773571 C-32.01344912 62.93729031 -32.01588938 56.78703813 -32.0094471 50.636549 C-32.00929389 48.02790565 -32.01533743 45.4192542 -32.02773857 42.81064034 C-32.04264653 39.16057314 -32.0319714 35.51142788 -32.01483154 31.86138916 C-32.02449951 30.7884108 -32.03416748 29.71543243 -32.04412842 28.60993958 C-31.95273142 19.2959633 -29.160217 12.78753634 -22.51312256 6.14044189 C-15.05380092 1.11321237 -8.93412375 -0.00972037 0 0 Z M-14.83987713 21.92063808 C-16.61777223 27.45591974 -16.93340022 32.59866463 -16.88543701 38.39263916 C-16.88908768 39.38718109 -16.89273834 40.38172302 -16.89649963 41.40640259 C-16.9045643 44.67339486 -16.89102968 47.93988479 -16.87640381 51.20684814 C-16.87588475 53.48793029 -16.87640421 55.7690129 -16.87791443 58.0500946 C-16.87782489 62.82205923 -16.86743206 67.59385426 -16.8493042 72.36578369 C-16.82660504 78.47440219 -16.82607735 84.58277338 -16.83282185 90.69142246 C-16.83616716 95.39865812 -16.8295213 100.10583766 -16.81969261 104.81306267 C-16.81585102 107.0652633 -16.81468807 109.31747019 -16.81627846 111.56967354 C-16.81665036 114.71911591 -16.80399401 117.86824411 -16.78778076 121.01763916 C-16.79025818 121.94302994 -16.7927356 122.86842072 -16.79528809 123.82185364 C-16.74087328 130.46332161 -16.54487054 135.86027005 -11.93061829 141.03871155 C-8.10108003 143.86146976 -4.45470776 143.83667061 0.16680908 143.76812744 C1.44354744 143.77903412 1.44354744 143.77903412 2.74607849 143.79016113 C5.54682485 143.80869523 8.3462876 143.79271001 11.14703369 143.77716064 C13.09947345 143.78520331 15.05190444 143.79572288 17.00431824 143.80860901 C22.13661959 143.8371359 27.26851692 143.83773653 32.40087891 143.83074951 C40.61869997 143.82342142 48.83639064 143.85477505 57.05410576 143.89319801 C59.92193243 143.90204465 62.78947679 143.89674838 65.65730286 143.88963318 C67.4169828 143.89301794 69.17666208 143.89676729 70.93634033 143.90093994 C71.73180267 143.8952449 72.52726501 143.88954987 73.34683228 143.88368225 C78.25808981 143.90986384 82.40142662 144.14117206 86.06427002 147.65264893 C86.49892578 148.22869873 86.93358154 148.80474854 87.38140869 149.39825439 C87.86158447 150.02344971 88.34176025 150.64864502 88.83648682 151.29278564 C89.56061768 152.26925049 89.56061768 152.26925049 90.29937744 153.26544189 C90.80146729 153.92415283 91.30355713 154.58286377 91.82086182 155.26153564 C93.05264194 156.88044667 94.27110472 158.50947534 95.48687744 160.14044189 C100.02883103 158.62645736 101.97106219 154.67858008 104.63922119 150.88848877 C107.33708115 147.20471363 109.11638265 145.39850669 113.48687744 144.14044189 C116.3703926 143.95950541 119.15577321 143.8803091 122.03741455 143.90093994 C122.88682114 143.89892578 123.73622772 143.89691162 124.6113739 143.89483643 C126.45070508 143.89129845 128.29004844 143.89204871 130.12937737 143.89661217 C133.04259602 143.90221522 135.955418 143.89303077 138.86860657 143.87940979 C147.14950353 143.84232006 155.43026493 143.82374854 163.71124268 143.83502197 C168.78114959 143.84087717 173.85049713 143.82259423 178.92028999 143.78913307 C180.84953816 143.78118594 182.7788474 143.78244672 184.7080822 143.79315758 C187.40832102 143.80750553 190.10680363 143.7911937 192.8069458 143.76812744 C193.60038391 143.77989517 194.39382202 143.7916629 195.21130371 143.80378723 C199.0661565 143.73933505 201.75409027 143.36078965 204.90437317 141.03871155 C210.13781372 135.16537298 209.78150287 128.47600634 209.76153564 121.01763916 C209.76664658 120.02484955 209.77175751 119.03205994 209.77702332 118.00918579 C209.7908737 114.74167784 209.78996605 111.47438188 209.78765869 108.20684814 C209.7915479 105.92673159 209.79588304 103.64661576 209.80064392 101.36650085 C209.80809619 96.59280038 209.80782187 91.81917389 209.80255127 87.04547119 C209.79675574 80.93799799 209.81369474 74.83082797 209.83689594 68.72340488 C209.8516499 64.01613098 209.85250274 59.30892982 209.84938622 54.60163689 C209.84989851 52.35025367 209.85511902 50.09886628 209.86519814 47.84750557 C209.87757822 44.69568468 209.87076125 41.54445113 209.85919189 38.39263916 C209.86683563 37.46927261 209.87447937 36.54590607 209.88235474 35.59455872 C209.83963908 30.31143298 209.75371761 24.52378192 206.48687744 20.14044189 C201.18024833 16.36207698 197.28872436 15.55875532 190.87164307 15.63250732 C190.02938927 15.62626736 189.18713547 15.6200274 188.31935883 15.61359835 C185.51032629 15.59770327 182.7021657 15.61025881 179.89312744 15.62286377 C177.87391658 15.6174411 175.85470968 15.61031763 173.83551025 15.60162354 C168.36032389 15.58340456 162.88543937 15.59045194 157.4102478 15.60313988 C151.67731927 15.61327485 145.94441638 15.60387281 140.21148682 15.59759521 C130.58448655 15.59032028 120.95760907 15.59990254 111.33062744 15.61895752 C100.2043753 15.64072589 89.07841636 15.63367441 77.95217133 15.6116519 C68.39528648 15.59349358 58.83848985 15.59094172 49.28159332 15.60140657 C43.57547704 15.60763909 37.86949852 15.60848367 32.16339111 15.59526062 C26.79854625 15.58369656 21.43407902 15.59173832 16.0692749 15.61483765 C14.1016706 15.62012172 12.13403446 15.61861614 10.16644287 15.60978699 C7.4779051 15.59883604 4.79057302 15.61258946 2.10211182 15.63250732 C0.93755589 15.61912299 0.93755589 15.61912299 -0.25052643 15.60546827 C-6.06339562 15.68884834 -11.16737084 16.99298843 -14.83987713 21.92063808 Z " fill="#000000" transform="translate(31.51312255859375,36.85955810546875)"/>
<path d="M0 0 C2.40559844 1.66124318 4.33102197 3.0409502 5.65625 5.69140625 C6.00798852 9.49018224 6.18326444 11.83500778 4.15625 15.12890625 C0.66927164 17.30826772 -2.40139884 17.45040096 -6.34375 16.69140625 C-8.85669094 15.55931366 -11.002693 14.17707704 -13.34375 12.69140625 C-18.76729958 10.5919677 -24.58729267 11.13099104 -29.90625 13.19140625 C-35.86946423 16.10079451 -39.83916225 20.68223076 -42.78125 26.56640625 C-44.3930051 35.52060126 -43.45938057 42.01091407 -38.34375 49.69140625 C-33.49207028 54.67076176 -27.92813853 56.84092479 -21.09375 57.19140625 C-15.58714777 57.07794604 -11.71155785 55.19386105 -6.859375 52.75390625 C-3.08719764 51.16068848 -1.18008018 51.33270598 2.65625 52.69140625 C5.388531 54.98299677 5.62983246 56.54875152 6.28125 60.06640625 C5.52228741 64.46838928 4.38161912 65.73849834 0.87890625 68.3359375 C-9.34492821 74.57085939 -20.97250489 75.40832424 -32.5625 73.03125 C-42.70376759 69.74103537 -50.85614978 62.77580143 -56.34375 53.69140625 C-61.37775242 43.34042494 -62.33881084 31.56686172 -58.59375 20.62890625 C-55.90575267 14.26259678 -52.46451461 9.3466468 -47.34375 4.69140625 C-46.80234375 4.19511719 -46.2609375 3.69882813 -45.703125 3.1875 C-32.74897071 -7.67112933 -14.48362257 -8.08668927 0 0 Z " fill="#000000" transform="translate(194.34375,82.30859375)"/>
<path d="M0 0 C2.40559844 1.66124318 4.33102197 3.0409502 5.65625 5.69140625 C6.00798852 9.49018224 6.18326444 11.83500778 4.15625 15.12890625 C0.66927164 17.30826772 -2.40139884 17.45040096 -6.34375 16.69140625 C-8.85669094 15.55931366 -11.002693 14.17707704 -13.34375 12.69140625 C-17.92552041 10.9178177 -23.10985946 10.91743104 -27.72265625 12.515625 C-29.96926151 13.51123754 -32.15939763 14.56638266 -34.34375 15.69140625 C-35.06949219 16.03042969 -35.79523438 16.36945313 -36.54296875 16.71875 C-38.95780637 18.02307661 -39.31590933 19.15606594 -40.34375 21.69140625 C-40.88 22.70203125 -41.41625 23.71265625 -41.96875 24.75390625 C-44.35126557 30.50141804 -44.38110386 36.56604527 -42.4296875 42.4453125 C-39.43398479 48.92955933 -36.14067388 52.83709459 -29.65625 56.00390625 C-20.81762357 57.83833815 -14.87056593 56.78239083 -6.859375 52.75390625 C-3.08719764 51.16068848 -1.18008018 51.33270598 2.65625 52.69140625 C5.388531 54.98299677 5.62983246 56.54875152 6.28125 60.06640625 C5.52228741 64.46838928 4.38161912 65.73849834 0.87890625 68.3359375 C-9.34492821 74.57085939 -20.97250489 75.40832424 -32.5625 73.03125 C-43.42171191 69.50810681 -51.97680183 61.71888451 -57.40625 51.73828125 C-61.6593624 42.3323596 -61.98710942 30.329922 -58.59375 20.62890625 C-55.90575267 14.26259678 -52.46451461 9.3466468 -47.34375 4.69140625 C-46.80234375 4.19511719 -46.2609375 3.69882813 -45.703125 3.1875 C-32.74897071 -7.67112933 -14.48362257 -8.08668927 0 0 Z " fill="#000000" transform="translate(116.34375,82.30859375)"/>
</svg>
